<svg xmlns="http://www.w3.org/2000/svg" width="20" height="20" viewBox="0 0 20 20">
  <path id="account_circle_FILL0_wght200_GRAD0_opsz48" d="M9.389,22.361a15.681,15.681,0,0,1,3.153-1.694A9.455,9.455,0,0,1,16,20.056a9.455,9.455,0,0,1,3.458.611,15.681,15.681,0,0,1,3.153,1.694,9.955,9.955,0,0,0,1.861-2.9A8.888,8.888,0,0,0,25.139,16,9.058,9.058,0,0,0,16,6.861,9.058,9.058,0,0,0,6.861,16a8.888,8.888,0,0,0,.667,3.458A9.955,9.955,0,0,0,9.389,22.361ZM16,16.417a3.216,3.216,0,0,1-2.347-.944,3.146,3.146,0,0,1-.958-2.333A3.273,3.273,0,0,1,16,9.833a3.273,3.273,0,0,1,3.306,3.306,3.146,3.146,0,0,1-.958,2.333A3.216,3.216,0,0,1,16,16.417ZM16,26a9.823,9.823,0,0,1-3.9-.778,10.009,10.009,0,0,1-5.319-5.306A9.794,9.794,0,0,1,6,16a9.823,9.823,0,0,1,.778-3.9,10.009,10.009,0,0,1,5.306-5.319A9.794,9.794,0,0,1,16,6a9.824,9.824,0,0,1,3.9.778A9.972,9.972,0,0,1,25.222,12.1a10.181,10.181,0,0,1,0,7.806A9.972,9.972,0,0,1,19.9,25.222,9.823,9.823,0,0,1,16,26Zm0-.861a9.367,9.367,0,0,0,3.125-.542,8.562,8.562,0,0,0,2.792-1.625,10.7,10.7,0,0,0-2.75-1.5A9.044,9.044,0,0,0,16,20.917a9.369,9.369,0,0,0-3.181.542,9.5,9.5,0,0,0-2.736,1.514A8.562,8.562,0,0,0,12.875,24.6,9.367,9.367,0,0,0,16,25.139Zm0-9.556a2.348,2.348,0,0,0,1.75-.708,2.534,2.534,0,1,0-1.75.708ZM16,13.139ZM16,23.028Z" transform="translate(-6 -6)" fill="#f7f3ed"/>
</svg>
