<svg xmlns="http://www.w3.org/2000/svg" width="177.662" height="32.275" viewBox="0 0 177.662 32.275">
  <g id="g23" transform="translate(-42.004 -72.126)">
    <g id="g3725_1_" transform="translate(42.004 72.126)">
      <g id="g3731_1_" transform="translate(0 0)">
        <path id="path3733_1_" d="M-506.914-39.845A4.526,4.526,0,0,1-505.09-43.7a36.771,36.771,0,0,0,2.6,3.188c.593.667,2.847,2.951,4.167,4.108a5.81,5.81,0,0,1-4.063,1.616c-2.491-.015-4.523-2.061-4.523-5.057m.208-7.993a5.453,5.453,0,0,0,1.157,3.366,6.946,6.946,0,0,0-3.648,5.754c0,2.091,1.527,5.324,6.006,5.324a7.434,7.434,0,0,0,5.606-2.388c2.254,1.839,2.951,2.061,5.116,2.061h2.017c.356,0,.534-.074.534-.193,0-.163-.119-.193-.326-.193a6.289,6.289,0,0,1-2.61-.89,21.586,21.586,0,0,1-3.188-2.373,10.34,10.34,0,0,0,2.269-5.695c0-.267-.208-.43-.593-.475a23.422,23.422,0,0,0-2.758-.163c-.178,0-.371.044-.371.208,0,.133.133.178.282.178a1.641,1.641,0,0,1,1.127.371,1.563,1.563,0,0,1,.43,1.142,7.364,7.364,0,0,1-1.142,3.841c-.593-.534-3.426-3.248-4.212-4.167-2.106-2.432-3.707-4.182-3.707-6.243a2.694,2.694,0,0,1,2.7-2.951,3.114,3.114,0,0,1,2.432,1.068,3.11,3.11,0,0,1,.682,2.032c0,.356.03.46.148.46s.193-.044.252-.415A27.689,27.689,0,0,0-498.3-51.1c0-.282-.015-.46-.341-.608a6.618,6.618,0,0,0-2.788-.549c-3.544,0-5.279,2.521-5.279,4.419M-591-57.24v23.372h5.116v-9.18h8.082v-4.523h-8.186v-5.161h9.58V-57.24Zm65.459,4.508h1.1c4.612,0,6.644,1.824,6.644,7.178s-2.017,7.178-6.644,7.178h-1.1Zm-5.027-4.508v23.372h5.561c7.608,0,12.294-3.381,12.294-11.686s-4.672-11.686-12.294-11.686Zm63.9,0-3.544,15.72-4.167-15.72h-3.885l-4.33,15.7-3.678-15.72h-4.909l5.858,23.387h4.464l4.315-14.637,4.39,14.637h4.3l6.021-23.372Zm7.029,23.372h5.027V-57.24h-5.027Zm22.9-23.372V-42.47l-8.572-14.771h-4.983v23.372h4.8V-48.639l8.853,14.771h4.7V-57.24Zm8.423,0v23.372h14.978v-4.508h-9.951v-5.265h8.216v-4.182h-8.216v-4.909h9.61V-57.24ZM-569.882-45.554c0-4.642,1.616-7.637,4.864-7.637s4.864,3,4.864,7.637-1.617,7.637-4.864,7.637-4.864-3-4.864-7.637m-5.19,0c0,6.629,2.966,12.146,10.055,12.146s10.055-5.532,10.055-12.146S-557.929-57.7-565.018-57.7s-10.055,5.517-10.055,12.146m27.406,0c0-4.642,1.616-7.637,4.864-7.637s4.864,3,4.864,7.637-1.616,7.637-4.864,7.637-4.864-3-4.864-7.637m-5.19,0c0,6.629,2.966,12.146,10.055,12.146s10.055-5.532,10.055-12.146S-535.714-57.7-542.8-57.7s-10.055,5.517-10.055,12.146" transform="translate(591 57.7)"/>
      </g>
      <g id="g3735_1_" transform="translate(136.579 27.693)">
        <path id="path3737_1_" d="M-52,200.7v4.508h3.055v-.845h-2.136V203.34h2.091v-.845h-2.091v-.949h2.136V200.7Z" transform="translate(52 -200.7)"/>
      </g>
      <g id="g3739_1_" transform="translate(140.651 27.693)">
        <path id="path3741_1_" d="M-72.749,200.7v2.832l-2-2.832H-75.7v4.508h.919v-2.936l2.061,2.936h.89V200.7Z" transform="translate(75.7 -200.7)"/>
      </g>
      <g id="g3743_1_" transform="translate(147.673 27.693)">
        <path id="path3745_1_" d="M-58,200.7v4.508h3.055v-.845h-2.135V203.34h2.091v-.845h-2.091v-.949h2.135V200.7Z" transform="translate(58 -200.7)"/>
      </g>
      <g id="g3747_1_" transform="translate(151.469 27.613)">
        <path id="path3749_1_" d="M-60,232.245l.5-.756a1.847,1.847,0,0,0,1.364.608c.5,0,.756-.237.756-.5,0-.786-2.477-.237-2.477-1.928A1.45,1.45,0,0,1-58.22,228.3a2.32,2.32,0,0,1,1.676.623l-.5.712a1.781,1.781,0,0,0-1.261-.489c-.386,0-.608.178-.608.445,0,.712,2.477.222,2.477,1.913,0,.83-.564,1.439-1.72,1.439a2.327,2.327,0,0,1-1.839-.7" transform="translate(60 -228.3)"/>
      </g>
      <g id="g3751_1_" transform="translate(155.965 27.684)">
        <path id="path3753_1_" d="M-62.4,237.908V233.4h2.017a1.385,1.385,0,0,1,1.453,1.453,1.373,1.373,0,0,1-1.453,1.439h-1.1v1.6Zm2.521-3.04a.6.6,0,0,0-.638-.608h-.964v1.2h.964a.581.581,0,0,0,.638-.593" transform="translate(62.4 -233.4)"/>
      </g>
      <g id="g3755_1_" transform="translate(159.398 27.693)">
        <path id="path3757_1_" d="M-74.639,200.7l-1.661,4.508h1.038l.267-.756h1.854l.267.756h1.038L-73.5,200.7Zm.578.964.667,1.943h-1.35Z" transform="translate(76.3 -200.7)"/>
      </g>
      <g id="g3759_1_" transform="translate(164.581 26.349)">
        <path id="path3761_1_" d="M-85.719,230.243l-2.061-2.936v2.936H-88.7v-4.508h.949l2,2.833v-2.833h.919v4.508Zm-1.438-5.354c-.133,0-.237.133-.237.415h-.43c0-.578.252-.9.7-.9s.5.46.756.46c.133,0,.237-.133.237-.415h.43c0,.578-.237.9-.7.9s-.519-.46-.756-.46" transform="translate(88.7 -224.4)"/>
      </g>
      <g id="g3763_1_" transform="translate(169.412 27.618)">
        <path id="path3765_1_" d="M-69.6,218.928a2.217,2.217,0,0,1,2.254-2.328,2.217,2.217,0,0,1,2.254,2.328,2.209,2.209,0,0,1-2.254,2.328,2.209,2.209,0,0,1-2.254-2.328m3.559,0a1.338,1.338,0,0,0-1.305-1.483,1.338,1.338,0,0,0-1.305,1.483,1.346,1.346,0,0,0,1.305,1.483,1.338,1.338,0,0,0,1.305-1.483" transform="translate(69.6 -216.6)"/>
      </g>
      <g id="g3767_1_" transform="translate(174.846 27.693)">
        <path id="path3769_1_" d="M-72.5,200.7v4.508h2.744v-.845h-1.824V200.7Z" transform="translate(72.5 -200.7)"/>
      </g>
    </g>
  </g>
</svg>
