<svg xmlns="http://www.w3.org/2000/svg" xmlns:xlink="http://www.w3.org/1999/xlink" width="201.375" height="60.828" viewBox="0 0 201.375 60.828">
  <defs>
    <clipPath id="clip-path">
      <rect id="Rectángulo_10" data-name="Rectángulo 10" width="60.828" height="201.375" fill="#f7f3ed"/>
    </clipPath>
  </defs>
  <g id="Grupo_83" data-name="Grupo 83" transform="translate(201.375 -29) rotate(90)">
    <g id="Grupo_8" data-name="Grupo 8" transform="translate(29)" clip-path="url(#clip-path)">
      <path id="Trazado_20" data-name="Trazado 20" d="M1.619,102.428l.549,1.037.121.011L2.1,100.945l-.261-.092,1.1-.56c-.036-.524.175-1.457-.2-1.954-.64-.854-.262-1.652-.343-2.473a3.027,3.027,0,0,0-.4-.886l.583-.091c0-.069-.007-.138-.011-.207l-.65-.083a11.453,11.453,0,0,1,.013-1.334,1.723,1.723,0,0,1,.316-.806c.5-.663.233-1.431.369-2.136a12.084,12.084,0,0,1,.706-2.168,6.934,6.934,0,0,0,.8-2.186c.05-.694.694-1.346,1.083-2.012.049-.085.2-.125.221-.208.2-.657.372-1.32.572-2.046.706.614-.459,1.863.876,2.084a9.178,9.178,0,0,1-.212-1.334c-.011-.419-.248-1.093.664-.93.077.014.223-.364.219-.657l-.418.209c0-.98-.026-1.987.007-2.993.037-1.145.32-1.377,1.687-1.314l-.713-.609c.222-.421.467-.879.7-1.341.037-.072.079-.182.05-.241-.564-1.174.119-2.253.287-3.36.076-.5.49-.934.655-1.43.193-.577.282-1.189.419-1.8h.631A11.392,11.392,0,0,1,11.4,66.56c.3-.55.74-1.027,1.028-1.582.43-.83.78-1.7,1.166-2.555.193-.427.652-.686.863-.979a3.906,3.906,0,0,0,.971-2.591c-.624-2.733-1.574-5.391-2.381-8.083a19.782,19.782,0,0,1-.863-3.269A13.4,13.4,0,0,0,9.95,42.137a10.056,10.056,0,0,1-.828-1.965c-.392-1.144-.778-2.294-1.082-3.463a7.476,7.476,0,0,1-.231-2.052c.014-.518.284-.744.949-.922.755-.2,1.481.395,2.239-.219a2.8,2.8,0,0,0,.988-1.471,9.624,9.624,0,0,1,1.1-1.834c.587.38,1.153.77,1.742,1.122,1.444.864,2.909,1.7,4.346,2.569,1.984,1.207,3.952,2.44,5.926,3.665.117.073.222.165.336.244,1.181.826,1.124.781,2.047-.4a9.329,9.329,0,0,1,1.63-1.165,4.744,4.744,0,0,0,1.078-1.112c.764-1.218,1.461-2.479,2.178-3.726a7.52,7.52,0,0,0,.368-.738,1.912,1.912,0,0,1,1.448-1.4,3.2,3.2,0,0,0,2.193-1.994c.032-.093-.129-.252-.276-.518l.956-.174,1.119-1.914.807.621a16.339,16.339,0,0,1,1.765-2.041c1.068-.9,1.384-2.2,2.008-3.333.027-.048.088-.121.073-.143-.693-1.043.447-1.532.726-2.268.122-.322.621-.5.961-.754l.825.716c.066-.434.114-.745.177-1.161l.731.448c.208-.876.425-1.664.566-2.465a.814.814,0,0,0-.3-.626c-.208-.165-.741-.212-.739-.3a2.774,2.774,0,0,1,.405-1.383l-.262-.4,1.321-.292.165.131c-.166.188-.33.377-.5.563-.085.093-.178.179-.268.268.1.075.208.151.312.226l.871.616.764-1.816.76.136a11.311,11.311,0,0,0,.8-1.223,3.685,3.685,0,0,0,.379-1.241c.038-.448.194-.646.627-.721.1-.017.157-.288.273-.519l.171.514,1.117-.491c.257-.82,2.33-1.589,3.464-1.087-.088-.55-.167-1.039-.244-1.513l.492-.862.238.225-.311.41c.1.06.171.121.187.109.276-.212.546-.433.816-.652l-.107-.2.648.183.551-1.119,1.632,3.052.456-.64-.926-.658.384-.695-.508-.6.6-.484c.163.576.32,1.224.552,1.844.034.091.424.05.748.078l-.464-1.537L61.2,3.5l.205.8.561-.03c-.023-.34-.048-.688-.088-1.264l.35.619c1.2-.247,1.752.728,2.727,1.272L64.7,3.2c-.2.044-.3.075-.4.087-.317.038-.634.068-.951.1.134-.241.26-.487.4-.723.311-.516.614-1.038.951-1.536.264-.392.573-.753.862-1.127.316.49.919,1,.891,1.467a14.045,14.045,0,0,0,.586,3.115c.007.044.135.068.277.135-.1-.912-.2-1.769-.3-2.626l.358-.079.6,2.026.246-.062c-.02-.433-.04-.865-.063-1.361.352.234.8.373.958.668.333.641.645.535,1.07.159a2.831,2.831,0,0,1,.4-.242c-.1-.142-.208-.376-.276-.365a3.952,3.952,0,0,0-.735.246c-.157-.352.133-.62.7-.638a1.369,1.369,0,0,0,.75-.363c.509.033,1.211-.153,1.337.7a.9.9,0,0,0,.618,0c.246-.2.4-.516.718-.715l-.356.885c.533-.114,1-.212,1.457-.313.054-.011.129-.071.153-.053.7.53,1.76.448,2.215,1.436a18.494,18.494,0,0,0,1.295,2.1c.336-.109.661-.278.711-.219a4.15,4.15,0,0,1,.442.817c.1.195.2.389.3.583l.391-.248h1.129l.4,1.015.655-.2-.274-.587c1.4-.093.988,1.779,2.142,1.761l1.452-.971.228.137c-.646.334-.857.7-.221,1.143l.676-.581c.912,1.41,2.456,2.312,2.771,4.054.571-.492,1.359-.195,2.251.816.941-.567,1.625.525,2.313.227l.34,1.458,1.323-.08c-.2.9-1.207,1.5-.453,2.408.11.133.352.157.58.251l-.1.354c.739.685,1.872.514,2.4,1.675a4.257,4.257,0,0,1,.692,2.867c.569-.07,1.012.006.961.738-.009.131.218.291.358.413.1.085.289.1.339.194.253.48.472.976.71,1.478l.769-.141a1.076,1.076,0,0,1,.136.237c.042.174,0,.415.1.518a12.344,12.344,0,0,0,1.53,1.38c.337.241.849.232,1.191.469a1.381,1.381,0,0,1,.463.987,4.36,4.36,0,0,1,1.229.575c.856.8,2.012,1.282,2.292,2.7a3.519,3.519,0,0,0,2.635,2.582,2.486,2.486,0,0,1,1.719,1.683.76.76,0,0,1-.225.681c-.621.347-.223.784.027.853.721.2.508.614.382,1.057.963.005,1.4.558,1.606,1.439a4.483,4.483,0,0,0,.577,1.376c.109.171.513.125.745.248,1.877.992,2.409,3.037,3.587,4.578a.746.746,0,0,0,.647.127,3.913,3.913,0,0,0,1.1-.49c.538-.357.924.17,1.385.171,3.236.006,6.474.068,9.706-.031,2.2-.067,4.394-.4,6.594-.549,1.277-.089,2.563-.039,3.843-.1.669-.03,1.333-.206,2-.224a1.315,1.315,0,0,1,1.289,1.475c-.03.328-.08.793.1.975.579.582.427,1.278.5,1.957.194,1.709.406,3.416.665,5.116.335,2.2.73,4.4,1.079,6.6a9.375,9.375,0,0,1,.06,1.328,2.186,2.186,0,0,1-1.486,1.895c-.548.228-1.043.58-1.584.829a2.51,2.51,0,0,1-.91.219c-1.715.084-3.432.2-5.147.195a23.276,23.276,0,0,0-6.031,1.028,2.017,2.017,0,0,1-1.608-.024c-.19-.1-.572.212-.878.268-.194.035-.424-.117-.616-.079-.843.165-.637.827-.623,1.395.007.265,0,.53,0,.886l1.468,3,.15,0c-.044-.463-.087-.927-.13-1.381.48-.154,1.184,1.139,1.394-.262.018.012.045.019.053.035a.415.415,0,0,0,.24.261q.047-.458.1-.916l.176-.159c.137.173.264.356.416.514.085.088.217.2.319.191,1.419-.1,2.837.087,4.255,0,.549-.034,1.1-.085,1.65-.086,1.575,0,3.15,0,4.725.033,1.179.023,2.361.06,3.535.16.476.041.71.425.687.928a5.88,5.88,0,0,0,.041.611l.324-.365a6.9,6.9,0,0,1,.511.877c.221.544,1,.87.464,1.736-.226.368.187,1.089.2,1.652.031,1.176.015,2.355-.028,3.532a11.955,11.955,0,0,0-.126,3.26,17.7,17.7,0,0,1,.58,2.163c.245,1.879.5,3.755.718,5.637.066.575-.164.931-.861.894-2.517-.132-5.036-.251-7.556-.318a6.741,6.741,0,0,0-2.9.2c-1.067.447-1.681.356-1.072,1.961-.718.069-.908.659-.926,1.181a1.727,1.727,0,0,0,.573,1.039,4.729,4.729,0,0,0,1.16.827,3.688,3.688,0,0,0,.966.191l.306.645h2.2l-.057.225c.256.134.511.378.769.382.889.015,1.782-.029,2.67-.1a16.222,16.222,0,0,1,1.831-.239,2.491,2.491,0,0,1,1.371.472c.562.444,1.444.873.747,1.87a.252.252,0,0,0,.011.24c.762.517.3,1.242.328,1.88.113,2.556.233,5.111.326,7.668.034.929.025,1.862-.023,2.791-.011.22-.259.429-.433.7l.516.041-.848,2.373.187.092.388-.659a3.4,3.4,0,0,1-.835,3.262,2.588,2.588,0,0,0-.311.655.849.849,0,0,1-1.469.307,2.259,2.259,0,0,0-.447-.257,3.018,3.018,0,0,1-3.792,1.154c-.692-.3-1.68.075-2.533.156-.029,0-.066.128-.065.2a1.018,1.018,0,0,1-1.027,1.1c-.556.072-.819.378-.717.906.133.689.329,1.366.526,2.039.021.072.229.089.35.131l.129-.371c1.4.236,2.8.442,4.188.726.32.066.587.4.961.664l.282-.136.542.766c.82-1.328,2.351-1.484,4.059-.383.187.145-.6.81.282.73a1.464,1.464,0,0,1,.068.433c-.043.914-.161,1.828-.137,2.74.054,2.086.208,4.17.255,6.257.026,1.189-.081,2.38-.127,3.57-.054,1.39-.083,2.783-.165,4.172a33.74,33.74,0,0,0,.3,4.744,14.873,14.873,0,0,1-.5,3.338c-.756-.121-1.5-.225-2.232-.371a.533.533,0,0,1-.331-.34c-.1-.435-.187-.787-.787-.582-.077.026-.31-.405-.607-.55l.3.749-.183.085-.247-.442-.1.937c-1.343-.241-2.651-.479-3.961-.708-.11-.019-.233.043-.345.027a2.029,2.029,0,0,1-.779-.251c-1.259.357-1.471,1.49-1.622,2.615-.109.818-.092,1.653-.135,2.481a.829.829,0,0,1-.057.327c-.321.624-.654,1.243-.924,1.752l-.192-.789-.683,2.1-.378-.4-.208.076c.1.287.119.649.309.847.426.444.16.576.389.994.578,1.055-.6,1.49-.607,2.337a1.288,1.288,0,0,1-1.495.909l.481.414v3.544l-1.071-.438c.178.818.328,1.486-.59,1.879a1.049,1.049,0,0,0-.4.926,1.287,1.287,0,0,1-.928,1.527c-2.225.662-2.977,2.452-3.635,4.35-.209.605-.3,1.251-.482,1.867-.058.2-.226.48-.379.505-1.426.235-1.6,1.362-1.8,2.506-.1-.033-.2-.1-.227-.074-.6.54-1.208,1.066-1.763,1.647a13.694,13.694,0,0,1-.94,1.213,1.427,1.427,0,0,1-1.313.511,2.081,2.081,0,0,0-2.182,1.426c-.622,1.57-.944,1.776-2.609,1.808a1.579,1.579,0,0,0-.634.238,10,10,0,0,1-.243,1.574c-.216.648-.938.687-1.441.923a2.893,2.893,0,0,0-1.491,1.431,8.862,8.862,0,0,1-.762,1.133v-2.091l-.128,0a19.248,19.248,0,0,1-.446,1.948c-.185.557-.552.772-1.138.354a13.774,13.774,0,0,0-1.54-.824c0-.015-.011-.247-.022-.48l-.166-.033-.43,1.178-.871-1.373-.866,3.092-1.561-.734c-.076.45-.146.858-.216,1.266l-.3.032-.586-1.875-.543.2L104.531,195l-.729-.408a4,4,0,0,1-2.145,2.14c-.875.433-1.723.925-2.562,1.425-.554.33-.98.352-1.292-.546l-1.214,1.114c-.3.319-.613-.786-1.021.033a1.925,1.925,0,0,0-2.11-.2,3.547,3.547,0,0,1-2.433-.108,2.539,2.539,0,0,0-2.443.74,1.782,1.782,0,0,1-.958.394c-.324.069-.716-.067-1,.062a3.319,3.319,0,0,1-2.472.161c-.226-.068-.593.334-.929.541l-.585-.845c.163,1.478-.864,1.219-1.487,1.537l-.417-.666-.338.755-1.476-.433c-.315.579-.813.694-1.586.6-1.1-.127-2.239.119-3.355.067a6.789,6.789,0,0,1-1.612-.554,2.261,2.261,0,0,0-.575-.035l-.064.284-.37-.633-.679.843-.131-.543c-.307.213-.606.583-.919.595-.339.013-.676-.383-1.042-.458a1.508,1.508,0,0,0-.943.17c-.322.175-.466.359-.974.223A7.367,7.367,0,0,1,64.689,200a1.39,1.39,0,0,0-1.312-.307,3.4,3.4,0,0,1-1.98,0c-.41-.137-.653-.772-1.017-1.245-.64.685-1.082-.1-1.426-.416a5.247,5.247,0,0,1-.836-1.6l-.229,0-.517,2.308a3.5,3.5,0,0,1-2.74-1.636.63.63,0,0,0-.544-.2c-1.075.343-1.836-.336-2.669-.775-.232-.122-.438-.4-.666-.409a3.454,3.454,0,0,1-2.135-.938c-.182-.157-.415-.553-.889-.2-.191.142-.755-.184-1.132-.339a8.1,8.1,0,0,1-1.95-.905,14.6,14.6,0,0,1-1.716-1.886c-.108-.121-.208-.327-.332-.344-.78-.108-1.571-.145-2.35-.264a15.027,15.027,0,0,1-1.676-.408.341.341,0,0,1-.213-.229c-.02-1.447-.944-1.6-2.106-1.417.027-.4.051-.745.069-1.01-.523.106-1.082.394-1.49.252s-.622-.866-1.046-1.064c-.8-.375-.1-1.441-.926-1.7l-.671.5c-.068-.214-.116-.366-.172-.542l-.952.684a10.187,10.187,0,0,1-.814-1.635c-.264-.9-1-1.341-1.6-1.931a5.154,5.154,0,0,1-.594-.924c-.569.165-1.094-.454-1.745-2.349-1.092.514-1.7-.2-2.434-.866a30.45,30.45,0,0,0-2.6-1.862,4.321,4.321,0,0,1-.633-.729l.135-.181H20.1c.181-1.461.406-2.947-1.784-3.082l.265-.339a19.526,19.526,0,0,1-1.82-1.855c-.777-1.029-1.885-1.955-1.881-3.356a3.758,3.758,0,0,0-1.646-2.888,3.365,3.365,0,0,1-.8-1.161c-.283-.532-.561-1.066-.851-1.595-.474-.864-.956-1.725-1.464-2.64l-.42.135c.232-.508.605-.963-.21-1.18-.1-.025-.114-.346-.171-.528-.349-1.122-.279-2.347-.845-3.421-.077-.145.02-.394.065-.588.2-.87.1-1-.793-1.06a.814.814,0,0,0,.07-1.3,2.086,2.086,0,0,1-.711-2.362c.389-1.118-.761-1.426-1.331-1.873a4.97,4.97,0,0,1-1.878-2.9,18.96,18.96,0,0,0-1.37-2.776c-.217-.492-.742-1.017-.172-1.628a.362.362,0,0,0-.006-.318c-.885-1.746-.585-3.6-.535-5.435a2.537,2.537,0,0,0-.435-1.489A3.6,3.6,0,0,1,.8,128.834l.786-.08c0-1.2.8-2.37.2-3.544l-.852.261-.127-.193c.4-.481-.215-1.255.548-1.631l-.908-1.824.347-.245c-.154-.113-.382-.2-.448-.347A3.076,3.076,0,0,1,.013,120.1c-.019-1.41-.033-2.825.078-4.229.04-.507.528-.966.646-1.485A4.213,4.213,0,0,0,.7,112.881c-.12-.812-.358-1.608-.439-2.422-.029-.281.26-.594.4-.894a.524.524,0,0,0,.074-.226c-.055-1.083-.074-2.171-.188-3.248a5.172,5.172,0,0,1,1.068-3.663m60.23-95.94a1.9,1.9,0,0,0,1.086-2.3l-.269-.085-.817,2.381M66.064,3.3c-.232.264-.873.458-.158.781.083.037.014.383.04.583a2.2,2.2,0,0,0,.142.638c.033.073.346.109.354.089A2.643,2.643,0,0,0,66.6,4.8c.038-.23.05-.464.078-.747l-.425.077L66.064,3.3M1.837,113.956l.407.093c-.26-.76,1.146-1.2.392-2.126l-.8,2.033M65.572,5.017l-.2-.006c-.029.144-.059.288-.115.564l-.146-.594c-.367,1.283-.367,1.283.531,1.277-.025-.421-.049-.831-.074-1.241" transform="translate(0)" fill="#f7f3ed"/>
    </g>
  </g>
</svg>
