<svg xmlns="http://www.w3.org/2000/svg" xmlns:xlink="http://www.w3.org/1999/xlink" width="199.936" height="30.829" viewBox="0 0 199.936 30.829">
  <defs>
    <clipPath id="clip-path">
      <rect id="Rectángulo_1" data-name="Rectángulo 1" width="199.936" height="30.829" fill="#f7f3ed"/>
    </clipPath>
  </defs>
  <g id="Grupo_75" data-name="Grupo 75" transform="translate(0 0)">
    <g id="Grupo_1" data-name="Grupo 1" transform="translate(0 0)" clip-path="url(#clip-path)">
      <path id="Trazado_1" data-name="Trazado 1" d="M325.825,24.925,320.5,37.812a1.68,1.68,0,0,0-.031,1.2H319.13a1.675,1.675,0,0,0-.031-1.2L313.77,24.925h-.164V37.7a2.549,2.549,0,0,0,.364,1.312h-2.531A2.55,2.55,0,0,0,311.8,37.7V25.631a2.549,2.549,0,0,0-.364-1.312h3.2a1.668,1.668,0,0,0,.028,1.2l5.126,12.4,5.125-12.4a1.668,1.668,0,0,0,.028-1.2h3.209a2.547,2.547,0,0,0-.364,1.312V37.7a2.547,2.547,0,0,0,.364,1.312h-2.536a2.548,2.548,0,0,0,.364-1.312V24.925Z" transform="translate(-227.918 -17.796)" fill="#f7f3ed"/>
      <path id="Trazado_2" data-name="Trazado 2" d="M393.7,24.385v.605h-8.253v6.324h4.907v.605h-4.907v6.537H393.7v.605H383.272a2.547,2.547,0,0,0,.364-1.311V25.7a2.543,2.543,0,0,0-.364-1.311Z" transform="translate(-280.487 -17.845)" fill="#f7f3ed"/>
      <path id="Trazado_3" data-name="Trazado 3" d="M437.644,38.453l.255.51h-2.544a1.115,1.115,0,0,0-.134-1.131l-4.345-5.671c-2.122,1.515-3.208,3.5-3.208,6.818h-1.823c0-3.614,2.208-5.767,4.638-7.33l-5.077-6.626a1.058,1.058,0,0,1-.156-.289l-.158-.449h2.544a1.039,1.039,0,0,0,.069,1.163l4.111,5.367c2.5-1.548,4.807-3.383,4.807-6.542h.612c0,3.468-2.516,5.464-5.044,7.03l5.34,6.97a1.081,1.081,0,0,1,.112.18" transform="translate(-311.092 -17.764)" fill="#f7f3ed"/>
      <path id="Trazado_4" data-name="Trazado 4" d="M481.256,25.708V37.762a2.544,2.544,0,0,0,.364,1.31h-2.544a2.54,2.54,0,0,0,.365-1.311V25.708a2.536,2.536,0,0,0-.365-1.311h2.544a2.552,2.552,0,0,0-.364,1.311" transform="translate(-350.599 -17.854)" fill="#f7f3ed"/>
      <path id="Trazado_5" data-name="Trazado 5" d="M498.34,30.571c0,3.8,1.854,6.9,5.657,6.9a3.733,3.733,0,0,0,3.983-2.914l1.33,1.33a7.516,7.516,0,1,1,0-10.626l-1.33,1.33A3.733,3.733,0,0,0,504,23.674c-3.8,0-5.657,3.095-5.657,6.9" transform="translate(-363.335 -16.872)" fill="#f7f3ed"/>
      <path id="Trazado_6" data-name="Trazado 6" d="M559.452,38.688l.288.387h-1.333a1.756,1.756,0,0,0,.031-1.221l-2.027-5.9h-4.235l-2.036,5.9a1.75,1.75,0,0,0,.03,1.221h-2.544l.289-.388a1.733,1.733,0,0,0,.251-.475l4.326-12.538a1.5,1.5,0,0,0-.141-1.277h2.667l-.008.013a1.5,1.5,0,0,0-.12,1.239L559.2,38.211a1.756,1.756,0,0,0,.251.477M556.2,31.344,554.3,25.8l-1.914,5.549Z" transform="translate(-400.763 -17.854)" fill="#f7f3ed"/>
      <path id="Trazado_7" data-name="Trazado 7" d="M609.653,25.688v12.43a1.193,1.193,0,0,0,.17.614l.194.322h-2.543a1.191,1.191,0,0,0,.007-1.215l-6.8-11.621V37.742a2.544,2.544,0,0,0,.364,1.311H598.5a2.544,2.544,0,0,0,.365-1.312v-12.4a1.289,1.289,0,0,0-.185-.663l-.18-.3h2.543a1.288,1.288,0,0,0,.011,1.284l6.781,11.553V25.688a2.542,2.542,0,0,0-.364-1.311h2.543a2.554,2.554,0,0,0-.364,1.31" transform="translate(-437.997 -17.84)" fill="#f7f3ed"/>
      <path id="Trazado_8" data-name="Trazado 8" d="M664.323,30.569a7.517,7.517,0,1,1-7.516-7.517,7.525,7.525,0,0,1,7.516,7.517m-1.859,0c0-3.8-1.854-6.9-5.657-6.9s-5.657,3.094-5.657,6.9,1.854,6.9,5.657,6.9,5.657-3.095,5.657-6.9" transform="translate(-475.164 -16.87)" fill="#f7f3ed"/>
      <path id="Trazado_9" data-name="Trazado 9" d="M3.591,27.859a1.692,1.692,0,0,1,.549,1.085h-.63a1.315,1.315,0,0,0-.419-.731,1.312,1.312,0,0,0-.882-.27,1.4,1.4,0,0,0-1.119.5,2.293,2.293,0,0,0-.426,1.52,2.237,2.237,0,0,0,.385,1.361,1.334,1.334,0,0,0,1.147.522,1.206,1.206,0,0,0,1.069-.549,2.109,2.109,0,0,0,.29-.76h.63A2.166,2.166,0,0,1,3.632,31.8a1.953,1.953,0,0,1-1.516.614,1.984,1.984,0,0,1-1.381-.5A2.643,2.643,0,0,1,0,29.849a2.651,2.651,0,0,1,.553-1.733A2.006,2.006,0,0,1,2.2,27.381a1.919,1.919,0,0,1,1.391.478" transform="translate(0 -20.038)" fill="#f7f3ed"/>
      <path id="Trazado_10" data-name="Trazado 10" d="M18.254,27.866h3.464v.585H18.884V29.9H21.5v.552H18.884V32.07h2.882v.569H18.254Z" transform="translate(-13.359 -20.393)" fill="#f7f3ed"/>
      <path id="Trazado_11" data-name="Trazado 11" d="M34.17,27.866h2.17a2.131,2.131,0,0,1,.884.159,1.13,1.13,0,0,1,.66,1.127,1.267,1.267,0,0,1-.177.7,1.283,1.283,0,0,1-.5.438.977.977,0,0,1,.421.3,1.074,1.074,0,0,1,.158.6l.023.64a1.944,1.944,0,0,0,.045.406.4.4,0,0,0,.208.292v.107h-.792a.581.581,0,0,1-.052-.159,2.952,2.952,0,0,1-.032-.377l-.039-.8a.673.673,0,0,0-.338-.627,1.358,1.358,0,0,0-.565-.088h-1.43v2.047H34.17Zm2.1,2.187a1.191,1.191,0,0,0,.7-.182.75.75,0,0,0,.257-.656.709.709,0,0,0-.36-.7,1.151,1.151,0,0,0-.515-.1H34.817v1.631Z" transform="translate(-25.006 -20.393)" fill="#f7f3ed"/>
      <path id="Trazado_12" data-name="Trazado 12" d="M51.212,27.866H53.12a1.789,1.789,0,0,1,1.507.7A2.6,2.6,0,0,1,55.1,30.18a3.255,3.255,0,0,1-.282,1.374,1.739,1.739,0,0,1-1.709,1.085h-1.9Zm1.781,4.221a1.715,1.715,0,0,0,.527-.068,1.167,1.167,0,0,0,.6-.487,2.031,2.031,0,0,0,.27-.741,2.9,2.9,0,0,0,.048-.5,2.371,2.371,0,0,0-.345-1.377,1.261,1.261,0,0,0-1.11-.491H51.865v3.665Z" transform="translate(-37.478 -20.393)" fill="#f7f3ed"/>
      <path id="Trazado_13" data-name="Trazado 13" d="M71.585,28.194a2.629,2.629,0,0,1,.475,1.621,2.837,2.837,0,0,1-.543,1.777,2.411,2.411,0,0,1-3.548.1,2.747,2.747,0,0,1-.562-1.774,2.822,2.822,0,0,1,.481-1.657,2.083,2.083,0,0,1,1.826-.884,2.184,2.184,0,0,1,1.871.813m-.57,3.042a2.608,2.608,0,0,0,.382-1.41,2.013,2.013,0,0,0-.44-1.356,1.5,1.5,0,0,0-1.2-.514,1.567,1.567,0,0,0-1.209.509,2.146,2.146,0,0,0-.468,1.5,2.193,2.193,0,0,0,.4,1.338,1.508,1.508,0,0,0,1.3.544,1.346,1.346,0,0,0,1.236-.613" transform="translate(-49.33 -20.038)" fill="#f7f3ed"/>
      <path id="Trazado_14" data-name="Trazado 14" d="M79.323,17.807q-1.585,2.448-3.287,4.806t-3.257,4.836l.06.06q.448-.6,1.046-1.315a13.466,13.466,0,0,1,1.285-1.33,6.821,6.821,0,0,1,1.494-1.028,3.605,3.605,0,0,1,1.644-.408,2.541,2.541,0,0,1,1.613.514,2.138,2.138,0,0,1,.658,1.783,5.284,5.284,0,0,1-.209,1.5,6.555,6.555,0,0,1-.553,1.33,7.753,7.753,0,0,1-.777,1.149q-.434.529-.882.982l.06.06a11.062,11.062,0,0,0,3.9-1.481A14.179,14.179,0,0,0,85.6,26l.239.121a17.291,17.291,0,0,1-2.51,2.6,11.178,11.178,0,0,1-2.152,1.406,8.466,8.466,0,0,1-1.823.65q-.837.181-1.584.363-.508.393-1.15.937t-1.359,1.043a9.193,9.193,0,0,1-1.494.846,3.853,3.853,0,0,1-1.584.348,1.662,1.662,0,0,1-.822-.227.785.785,0,0,1-.4-.741,1.252,1.252,0,0,1,.613-1.058,5.153,5.153,0,0,1,1.494-.68,13.207,13.207,0,0,1,1.838-.393q.957-.136,1.614-.2a8.977,8.977,0,0,0,.792-1.1,12,12,0,0,0,.732-1.375,9.945,9.945,0,0,0,.538-1.5,5.5,5.5,0,0,0,.209-1.436,2.149,2.149,0,0,0-.3-1.375.951.951,0,0,0-.717-.317,2.667,2.667,0,0,0-1.449.5,9.16,9.16,0,0,0-1.539,1.3,21.311,21.311,0,0,0-1.539,1.783q-.762.983-1.419,1.95t-1.2,1.8q-.537.831-.9,1.314-.269.393-.777,1.149t-1.136,1.723q-.628.967-1.33,2.086T65.1,39.765q-.687,1.134-1.315,2.191t-1.105,1.9H60.825q4.034-6.559,8.233-13.012t8.293-13.042ZM72.6,33.947a2.126,2.126,0,0,0,1-.3,7.186,7.186,0,0,0,1.076-.725,11.439,11.439,0,0,0,.941-.846q.418-.423.6-.635l-.059-.061q-.509.091-1.27.2a13.067,13.067,0,0,0-1.465.287,4.093,4.093,0,0,0-1.2.5.978.978,0,0,0-.493.861.613.613,0,0,0,.269.544,1.044,1.044,0,0,0,.6.181" transform="translate(-44.513 -13.032)" fill="#f7f3ed"/>
      <path id="Trazado_15" data-name="Trazado 15" d="M151.455,41.58a19.785,19.785,0,0,1-1.121,1.662,18.94,18.94,0,0,1-1.524,1.8q-.852.892-1.823,1.723a16.417,16.417,0,0,1-2.018,1.481,10.966,10.966,0,0,1-2.107,1.028,6.17,6.17,0,0,1-2.077.378,2.717,2.717,0,0,1-1.942-.65,2.434,2.434,0,0,1-.688-1.859,5.892,5.892,0,0,1,.792-2.8,12.216,12.216,0,0,1,4.707-4.76,5.772,5.772,0,0,1,2.809-.816,1.892,1.892,0,0,1,1.165.317,1.087,1.087,0,0,1,.418.922,1.907,1.907,0,0,1-.777,1.406,8.9,8.9,0,0,1-1.9,1.239,19.411,19.411,0,0,1-2.406,1,20.332,20.332,0,0,1-2.271.65,6.383,6.383,0,0,0-.538,1.36,5.635,5.635,0,0,0-.209,1.511,3.346,3.346,0,0,0,.075.71,2.174,2.174,0,0,0,.239.635,1.329,1.329,0,0,0,.448.469,1.277,1.277,0,0,0,.7.181,5.437,5.437,0,0,0,2.316-.65,15.039,15.039,0,0,0,2.7-1.738,21.687,21.687,0,0,0,2.63-2.479,18.868,18.868,0,0,0,2.152-2.871Zm-4.841-1.6a.834.834,0,0,0-.224-.635.776.776,0,0,0-.553-.212,2.46,2.46,0,0,0-1.36.5,9.408,9.408,0,0,0-1.449,1.239,12.4,12.4,0,0,0-1.3,1.587,9.873,9.873,0,0,0-.882,1.511,11.262,11.262,0,0,0,1.643-.469,11.881,11.881,0,0,0,1.9-.862,6.827,6.827,0,0,0,1.569-1.194,2.083,2.083,0,0,0,.658-1.466" transform="translate(-101.106 -28.372)" fill="#f7f3ed"/>
      <path id="Trazado_16" data-name="Trazado 16" d="M183.275,0q-2.66,4.08-4.632,7.057t-3.377,5.093q-1.405,2.116-2.3,3.491t-1.4,2.252a10.194,10.194,0,0,0-.7,1.39,2.558,2.558,0,0,0-.194.876q0,.756.657.756a3.46,3.46,0,0,0,1.748-.619,14.145,14.145,0,0,0,2.152-1.692,27.428,27.428,0,0,0,2.346-2.509q1.2-1.435,2.331-3.068l.329.121q-1.075,1.541-2.271,2.977a30.169,30.169,0,0,1-2.3,2.494,15.372,15.372,0,0,1-2.525,2.025,3.837,3.837,0,0,1-1.927.635,1.777,1.777,0,0,1-1.33-.423,1.554,1.554,0,0,1-.4-1.118,4.187,4.187,0,0,1,.224-1.315,9.51,9.51,0,0,1,.762-1.632q.538-.951,1.42-2.312t2.181-3.34q1.3-1.98,3.063-4.715T181.184,0Z" transform="translate(-124.021 0)" fill="#f7f3ed"/>
      <path id="Trazado_17" data-name="Trazado 17" d="M209.85,23.617a5.825,5.825,0,0,1-1.614,1.3,3.692,3.692,0,0,1-1.763.483,2.628,2.628,0,0,1-1.435-.378,2.926,2.926,0,0,1-.926-.891h-.06a9.019,9.019,0,0,1-1.105,2.448,12.537,12.537,0,0,1-1.928,2.388,11.073,11.073,0,0,1-2.465,1.813,5.726,5.726,0,0,1-2.749.726,2.436,2.436,0,0,1-1.943-.756,2.977,2.977,0,0,1-.657-2.025,4.482,4.482,0,0,1,.329-1.541,9.083,9.083,0,0,1,.912-1.768,13.619,13.619,0,0,1,1.375-1.753,11.857,11.857,0,0,1,1.718-1.541,8.722,8.722,0,0,1,1.957-1.088,5.605,5.605,0,0,1,2.077-.408,2.458,2.458,0,0,1,1.9.726,2.877,2.877,0,0,1,.732,1.874,2.062,2.062,0,0,0,.643,1.284,2.146,2.146,0,0,0,1.6.589,3.345,3.345,0,0,0,1.688-.453,6.49,6.49,0,0,0,1.479-1.179ZM194.818,29.45a2.228,2.228,0,0,0,.3,1.239,1,1,0,0,0,.9.453,3.268,3.268,0,0,0,1.6-.438,7.214,7.214,0,0,0,1.524-1.148,10.838,10.838,0,0,0,1.36-1.617,13.7,13.7,0,0,0,1.091-1.874,12.45,12.45,0,0,0,.732-1.889,6.043,6.043,0,0,0,.269-1.677,1.8,1.8,0,0,0-.313-1.073,1.116,1.116,0,0,0-.971-.438,2.741,2.741,0,0,0-1.345.408,8.235,8.235,0,0,0-1.45,1.073,10.9,10.9,0,0,0-1.39,1.541,16.09,16.09,0,0,0-1.18,1.813,10.185,10.185,0,0,0-.822,1.874,5.78,5.78,0,0,0-.3,1.753m10.041-15.475a.534.534,0,0,1,.493.287,1.085,1.085,0,0,1,.164.529,2.262,2.262,0,0,1-.568,1.36,10.878,10.878,0,0,1-1.27,1.36,12.13,12.13,0,0,1-1.33,1.058,2.418,2.418,0,0,1-.777.423c-.1,0-.149-.04-.149-.121s.115-.212.344-.393.483-.408.762-.68a7.839,7.839,0,0,0,.792-.907,1.9,1.9,0,0,0,.4-1.043,3.422,3.422,0,0,1,.344-1.33.872.872,0,0,1,.792-.544" transform="translate(-141.391 -10.227)" fill="#f7f3ed"/>
      <path id="Trazado_18" data-name="Trazado 18" d="M239.74,39.011l-3.945,5.531.06.061q.628-.755,1.465-1.768a21.51,21.51,0,0,1,1.792-1.919,11.511,11.511,0,0,1,1.987-1.526,3.954,3.954,0,0,1,2.047-.62,1.865,1.865,0,0,1,1.39.5,1.75,1.75,0,0,1,.493,1.284,2.591,2.591,0,0,1-.344,1.149,14.555,14.555,0,0,1-.851,1.421q-.509.756-1.106,1.541t-1.105,1.5q-.508.711-.852,1.3a2.081,2.081,0,0,0-.344.982.744.744,0,0,0,.837.846,3.96,3.96,0,0,0,2.032-.65,13.809,13.809,0,0,0,2.57-2.192q.6-.6,1.211-1.33t1.18-1.436q.567-.71,1.031-1.345t.732-1.058l.209.121q-.6.906-1.539,2.161t-2.047,2.463q-.657.725-1.345,1.39a12.844,12.844,0,0,1-1.375,1.164,7.017,7.017,0,0,1-1.36.786,3.374,3.374,0,0,1-1.33.287,2.134,2.134,0,0,1-1.434-.484,1.652,1.652,0,0,1-.568-1.33,3.634,3.634,0,0,1,.717-1.98q.716-1.072,1.584-2.161t1.584-2.086a3.153,3.153,0,0,0,.718-1.753.639.639,0,0,0-.239-.544,1.013,1.013,0,0,0-.628-.182,3.316,3.316,0,0,0-1.673.559,11.206,11.206,0,0,0-1.9,1.481,27.559,27.559,0,0,0-1.943,2.055q-.971,1.134-1.808,2.267t-1.494,2.176a17.226,17.226,0,0,0-.986,1.738h-1.853q.778-1.329,1.659-2.705t1.748-2.72q.866-1.344,1.659-2.6T237.8,39.1Z" transform="translate(-169.279 -28.372)" fill="#f7f3ed"/>
      <path id="Trazado_19" data-name="Trazado 19" d="M726.954,26.759a3.232,3.232,0,0,1-4.567-4.575,3.23,3.23,0,0,1,5.513,2.281,3.134,3.134,0,0,1-.947,2.294M722.7,22.5a2.689,2.689,0,0,0-.81,1.968,2.721,2.721,0,0,0,.806,1.982,2.775,2.775,0,0,0,3.937,0,2.812,2.812,0,0,0,0-3.95,2.769,2.769,0,0,0-3.932,0m1.9.18a2.714,2.714,0,0,1,.968.128.882.882,0,0,1,.551.9.776.776,0,0,1-.346.7,1.338,1.338,0,0,1-.513.172.862.862,0,0,1,.609.348.975.975,0,0,1,.193.55v.259c0,.082,0,.17.009.264a.563.563,0,0,0,.031.185l.022.044h-.585c0-.012-.006-.024-.009-.035s-.006-.025-.009-.039l-.013-.114v-.281a.867.867,0,0,0-.334-.812,1.5,1.5,0,0,0-.7-.114h-.493v1.4h-.625v-3.55Zm.675.56a1.628,1.628,0,0,0-.757-.132h-.535v1.286h.566a1.7,1.7,0,0,0,.6-.079.639.639,0,0,0,.13-1.074" transform="translate(-527.966 -15.545)" fill="#f7f3ed"/>
    </g>
  </g>
</svg>
