<svg xmlns="http://www.w3.org/2000/svg" width="15.556" height="20" viewBox="0 0 15.556 20">
  <path id="shopping_bag_FILL0_wght200_GRAD0_opsz48" d="M11.528,26A1.518,1.518,0,0,1,10,24.472v-12.5a1.518,1.518,0,0,1,1.528-1.528h2.5V9.75A3.637,3.637,0,0,1,15.111,7.1a3.789,3.789,0,0,1,5.333,0A3.637,3.637,0,0,1,21.528,9.75v.694h2.5a1.518,1.518,0,0,1,1.528,1.528v12.5A1.518,1.518,0,0,1,24.028,26ZM14.861,9.75v.694h5.833V9.75a2.77,2.77,0,0,0-.847-2.056,2.986,2.986,0,0,0-4.139,0A2.77,2.77,0,0,0,14.861,9.75ZM11.528,25.139h12.5a.717.717,0,0,0,.667-.667v-12.5a.717.717,0,0,0-.667-.667h-2.5v2.889a.433.433,0,0,1-.125.319.4.4,0,0,1-.292.125.388.388,0,0,1-.306-.125.463.463,0,0,1-.111-.319V11.306H14.861v2.889a.433.433,0,0,1-.125.319.4.4,0,0,1-.292.125.388.388,0,0,1-.306-.125.463.463,0,0,1-.111-.319V11.306h-2.5a.717.717,0,0,0-.667.667v12.5a.717.717,0,0,0,.667.667Zm-.667,0v0Z" transform="translate(-10 -6)" fill="#f7f3ed"/>
</svg>
